<?xml version="1.0" encoding="UTF-8"?>
<svg width="3840px" height="2158px" viewBox="0 0 3840 2158" version="1.1" xmlns="http://www.w3.org/2000/svg" xmlns:xlink="http://www.w3.org/1999/xlink">
    <!-- Generator: Sketch 59.1 (86144) - https://sketch.com -->
    <title>ICBC_beijing_cwl</title>
    <desc>Created with Sketch.</desc>
    <g id="ICBC_beijing_cwl" stroke="none" stroke-width="1" fill="none" fill-rule="evenodd">
        <g id="ground" transform="translate(888.863367, 467.342358)" fill="#6630D0">
            <polygon points="-2.27373675e-13 332.010581 615.270892 332.010581 615.270892 89.5280333 1397.78408 89.5280333 1397.78408 332.010581 2209.07654 332.010581 2209.07654 1.13686838e-13 2609.30733 1.13686838e-13 2609.30733 1031.70627 2210.13663 1031.70627 2210.13663 790.151933 1012.33567 790.151933 1012.33567 1031.70627 760.052793 1031.70627 760.052793 1377.89073 -2.27373675e-13 1377.89073"></polygon>
        </g>
        <g id="area" transform="translate(889.863367, 466.352939)">
            <polygon id="贵宾区" points="4.58202152e-14 334 0 1377.98942 757.866075 1377.98942 757.866075 1031.78305 1011.0452 1031.78305 1011.0452 334" fill="#50E3C2"></polygon>
            <polygon id="非自助区" points="1012 334 1012 790.308192 2106.12234 790.308192 2106.12234 334" fill="#F85434"></polygon>
            <polygon id="自助区" points="2209 0.989419499 2609 0.989419499 2609 417.356438 2471.32974 417.356438 2471.32974 334 2209 334" fill="#FFB000"></polygon>
            <polygon id="迎宾区" points="2106.12234 334 2106.12234 790.308192 2608.30733 790.308192 2608.30733 417.356438 2471.32974 417.356438 2471.32974 334" fill="#FFFD00"></polygon>
            <polygon id="工银驿站" points="2209.13663 791.141352 2608.30733 791.141352 2608.30733 1032.69569 2209.13663 1032.69569" fill="#C33DFF"></polygon>
        </g>
    </g>
</svg>